#!OML:ASF H:\Male1\Project 1\Capture day 1\Session 1\Male1.ASF
:FULLY-SPECIFIED
:DEGREES
713
root 22.135 15.6041 0.718169 59.3071 -85.7758 -56.8527
lowerback 8.4249 3.16328 -3.54676
upperback 7.41959 3.67786 -3.92601
thorax 3.0404 1.63134 -2.3064
lowerneck -8.01747 -0.235146 7.42853
upperneck 9.5279 -1.73591 3.46425
head 4.60732 -0.441859 -0.264362
rclavicle 6.04305e-014 -5.56597e-014
rhumerus 37.517 41.2834 -65.606
rradius 87.2516
rwrist -14.4219
rhand -17.3132 18.588
rfingers 7.12502
rthumb 8.93315 -11.2029
lclavicle 6.04305e-014 -5.56597e-014
lhumerus -8.51441 2.88093 84.5577
lradius 123.284
lwrist 4.53976
lhand -9.23114 -15.6942
lfingers 7.12502
lthumb 16.7239 13.6055
rfemur -2.21473 19.967 22.3336
rtibia 12.3296
rfoot -38.7713 -38.5024
rtoes 4.71397
lfemur -11.5243 -20.5475 -12.1841
ltibia 25.2194
lfoot -20.2045 25.6206
ltoes -4.84688
714
root 22.1138 15.6056 0.719948 66.6474 -86.2946 -64.246
lowerback 8.21277 3.16543 -3.98132
upperback 7.20282 3.67345 -3.70943
thorax 2.88621 1.61397 -1.83291
lowerneck -8.17098 -0.188499 7.17317
upperneck 9.96838 -1.62225 3.13274
head 4.31931 -0.395527 -0.298624
rclavicle -3.49861e-014 9.54166e-014
rhumerus 32.929 44.1099 -68.1806
rradius 90.3737
rwrist -13.5801
rhand -16.8348 19.1884
rfingers 7.12502
rthumb 9.3947 -10.5822
lclavicle -3.49861e-014 9.54166e-014
lhumerus -9.96747 4.02311 84.416
lradius 124.08
lwrist 4.49038
lhand -7.04598 -14.4141
lfingers 7.12502
lthumb 18.8266 14.6948
rfemur -2.34738 20.2707 22.1254
rtibia 12.669
rfoot -38.4433 -38.3376
rtoes 3.99103
lfemur -10.8954 -21.1904 -12.5751
ltibia 24.8008
lfoot -20.9841 26.5243
ltoes -3.03642
715
root 22.0892 15.6043 0.722771 74.446 -86.7933 -72.0742
lowerback 7.9535 3.11297 -4.45117
upperback 7.02065 3.60008 -3.50799
thorax 2.79551 1.56113 -1.34973
lowerneck -8.30217 -0.155447 6.70686
upperneck 10.0143 -1.49991 2.9241
head 4.35577 -0.357744 -0.281299
rclavicle -2.22639e-014 -1.90833e-014
rhumerus 27.9587 46.6011 -71.2374
rradius 93.2682
rwrist -12.8229
rhand -15.3472 20.1198
rfingers 7.12502
rthumb 10.8299 -9.581
lclavicle -2.22639e-014 -1.90833e-014
lhumerus -11.5555 4.93761 84.2031
lradius 124.991
lwrist 4.65722
lhand -5.68209 -13.7438
lfingers 7.12502
lthumb 20.1379 15.2325
rfemur -2.40473 20.5771 21.8299
rtibia 12.908
rfoot -38.3042 -38.1295
rtoes 3.6273
lfemur -10.301 -21.8548 -13.07
ltibia 24.4402
lfoot -21.8333 27.3965
ltoes -1.60883
716
root 22.0685 15.5999 0.723914 83.2072 -87.2008 -80.8751
lowerback 7.77319 3.0546 -4.18164
upperback 6.85413 3.54838 -3.828
thorax 2.75689 1.55652 -1.82187
lowerneck -8.54814 -0.115861 6.7833
upperneck 10.1151 -1.47759 2.87196
head 4.42754 -0.340819 -0.309125
rclavicle -2.06736e-014 5.725e-014
rhumerus 22.2362 48.5548 -75.5251
rradius 95.8081
rwrist -10.0521
rhand -15.6124 20.0588
rfingers 7.12502
rthumb 10.5741 -9.6552
lclavicle -2.06736e-014 5.725e-014
lhumerus -13.2703 4.85515 83.2137
lradius 126.02
lwrist 5.20766
lhand -7.49846 -14.6076
lfingers 7.12502
lthumb 18.3914 14.543
rfemur -2.347 21.0268 21.5569
rtibia 12.9844
rfoot -38.4602 -37.9871
rtoes 3.80056
lfemur -9.78246 -22.5385 -13.5497
ltibia 24.1945
lfoot -22.7225 28.2194
ltoes -0.553006
717
root 22.0537 15.5947 0.723619 95.7699 -87.2264 -93.4617
lowerback 7.76159 3.02484 -2.90235
upperback 6.59547 3.57073 -4.58341
thorax 2.62025 1.63718 -3.32438
lowerneck -8.90877 -0.0533173 7.33941
upperneck 10.3676 -1.54498 3.03593
head 4.56599 -0.334367 -0.353443
rclavicle -1.98785e-014 2.38542e-014
rhumerus 15.7366 49.3889 -81.2914
rradius 98.1028
rwrist -8.26466
rhand -14.9034 20.8496
rfingers 7.12502
rthumb 11.2579 -8.82828
lclavicle -1.98785e-014 2.38542e-014
lhumerus -15.0808 3.81945 81.4719
lradius 127.106
lwrist 6.28304
lhand -7.33949 -14.6396
lfingers 7.12502
lthumb 18.5443 14.4965
rfemur -2.36524 21.678 21.5882
rtibia 13.0632
rfoot -38.5841 -37.9766
rtoes 4.24571
lfemur -9.33976 -23.1741 -13.6807
ltibia 23.9995
lfoot -23.8415 28.8259
ltoes 1.29983
718
root 22.0449 15.591 0.720106 106.124 -86.9303 -103.81
lowerback 7.63162 2.96687 -2.67434
upperback 6.42465 3.52192 -4.33873
thorax 2.50633 1.62382 -3.18947
lowerneck -9.25354 0.144871 7.16836
upperneck 10.4736 -1.23326 2.62755
head 4.65805 -0.200843 -0.432731
rclavicle 1.98785e-014 7.95139e-015
rhumerus 9.54663 50.7447 -85.5534
rradius 100.169
rwrist -6.89802
rhand -14.3681 21.6688
rfingers 7.12502
rthumb 11.7741 -7.98027
lclavicle 1.98785e-014 7.95139e-015
lhumerus -16.8787 3.33105 81.1993
lradius 128.079
lwrist 6.93539
lhand -7.10934 -14.2791
lfingers 7.12502
lthumb 18.7657 14.8357
rfemur -2.55357 22.3805 21.845
rtibia 13.3373
rfoot -38.6917 -38.0684
rtoes 4.35008
lfemur -8.98194 -23.5482 -13.5102
ltibia 23.7463
lfoot -24.8531 28.9736
ltoes 3.54217
719
root 22.03 15.5888 0.718061 113.927 -87.0564 -111.635
lowerback 7.48106 2.84685 -2.85671
upperback 6.30366 3.36567 -4.20479
thorax 2.43665 1.54043 -2.93442
lowerneck -9.17372 0.181547 6.7399
upperneck 10.2474 -1.08063 2.49034
head 4.57624 -0.155814 -0.395799
rclavicle 1.59028e-015 -4.45278e-014
rhumerus 3.25907 51.9715 -89.8569
rradius 101.926
rwrist -6.59228
rhand -14.5392 22.2538
rfingers 7.12502
rthumb 11.6091 -7.40466
lclavicle 1.59028e-015 -4.45278e-014
lhumerus -18.7369 2.55981 81.0642
lradius 129.1
lwrist 6.94206
lhand -6.49114 -13.9989
lfingers 7.12502
lthumb 19.3602 15.0573
rfemur -2.69705 22.6994 21.6058
rtibia 13.7075
rfoot -38.509 -38.2098
rtoes 2.59888
lfemur -8.59567 -23.9007 -13.8694
ltibia 23.4493
lfoot -25.5168 29.1496
ltoes 5.11829
720
root 22.0118 15.5873 0.722368 123.301 -87.7765 -120.969
lowerback 7.13914 2.5962 -3.51826
upperback 6.26925 3.02221 -4.21895
thorax 2.54595 1.34456 -2.54807
lowerneck -9.61081 0.511876 6.84629
upperneck 10.2023 -0.591792 1.7942
head 4.63989 0.0536596 -0.595269
rclavicle -7.15625e-015 5.08889e-014
rhumerus -2.9231 52.8743 -94.108
rradius 103.306
rwrist -6.64144
rhand -14.8365 22.6852
rfingers 7.12502
rthumb 11.3225 -6.98913
lclavicle -7.15625e-015 5.08889e-014
lhumerus -20.5828 1.51119 81.0762
lradius 130.129
lwrist 6.57804
lhand -5.71759 -13.9078
lfingers 7.12502
lthumb 20.1038 15.072
rfemur -2.82076 22.4964 20.6515
rtibia 14.0248
rfoot -38.2276 -38.1006
rtoes 0.963788
lfemur -8.33035 -24.4235 -14.8946
ltibia 23.1736
lfoot -25.7987 29.6401
ltoes 5.59827
721
root 22.0007 15.5858 0.724553 133.697 -88.1068 -131.29
lowerback 6.81698 2.35235 -3.87643
upperback 6.23588 2.70846 -4.12205
thorax 2.66188 1.17412 -2.22028
lowerneck -9.72201 0.701719 6.67317
upperneck 10.0008 -0.249142 1.34231
head 4.60111 0.186926 -0.683581
rclavicle -3.97569e-016 -2.38542e-014
rhumerus -8.81135 53.2881 -98.0849
rradius 104.385
rwrist -6.30395
rhand -14.4682 23.0692
rfingers 7.12502
rthumb 11.6776 -6.58535
lclavicle -3.97569e-016 -2.38542e-014
lhumerus -22.6287 0.0296382 81.3639
lradius 131.043
lwrist 6.30202
lhand -5.44749 -14.2615
lfingers 7.12502
lthumb 20.3634 14.6909
rfemur -3.02781 22.4445 20.0655
rtibia 14.3421
rfoot -38.3282 -37.8283
rtoes 0.990422
lfemur -8.16016 -24.6921 -15.4822
ltibia 22.9184
lfoot -25.9821 29.9831
ltoes 5.83942
